<?xml version="1.0" encoding="utf-8"?>
<!-- Generated by IcoMoon.io -->
<!DOCTYPE svg PUBLIC "-//W3C//DTD SVG 1.1//EN" "http://www.w3.org/Graphics/SVG/1.1/DTD/svg11.dtd">
<svg version="1.1" xmlns="http://www.w3.org/2000/svg" xmlns:xlink="http://www.w3.org/1999/xlink" width="128" height="128" viewBox="0 0 128 128">
<g id="icomoon-ignore">
	<line stroke-width="1" x1="" y1="" x2="" y2="" stroke="#449FDB" opacity=""></line>
</g>
	<path d="M91.834 84.173l-17.651-20.173 17.651-20.173c3.002-3.002 3.002-7.866 0-10.861s-7.866-2.995-10.861 0l-16.973 19.398-16.966-19.392c-3.002-3.002-7.866-3.002-10.861 0s-2.995 7.866 0 10.861l17.645 20.166-17.651 20.173c-2.995 3.002-2.995 7.853 0 10.848 3.002 3.002 7.866 3.002 10.861 0l16.973-19.386 16.966 19.386c3.002 3.002 7.866 3.002 10.861 0s3.002-7.846 0.006-10.848z" fill="#000000"></path>
</svg>
