<?xml version="1.0" encoding="iso-8859-1"?>
<!-- Generator: Adobe Illustrator 16.0.0, SVG Export Plug-In . SVG Version: 6.00 Build 0)  -->
<!DOCTYPE svg PUBLIC "-//W3C//DTD SVG 1.1//EN" "http://www.w3.org/Graphics/SVG/1.1/DTD/svg11.dtd">
<svg version="1.1" id="Capa" xmlns="http://www.w3.org/2000/svg" xmlns:xlink="http://www.w3.org/1999/xlink" x="0px" y="0px"
	 width="180px" height="55.167px" viewBox="0 0 180 55.167" style="enable-background:new 0 0 180 55.167;" xml:space="preserve">
<g>
	<g>
		<g>
			<path style="fill:#414243;" d="M77.193,24.684h17.673v22.071c-4.798,1.644-10.074,2.464-15.824,2.464
				c-6.312,0-11.189-1.83-14.635-5.489c-3.445-3.659-5.168-8.879-5.168-15.657c0-6.61,1.887-11.754,5.658-15.433
				c3.771-3.679,9.056-5.518,15.854-5.518c2.575,0,5.008,0.243,7.294,0.729s4.282,1.102,5.98,1.849l-3.501,8.684
				c-2.95-1.458-6.189-2.186-9.719-2.186c-3.231,0-5.727,1.051-7.493,3.151c-1.764,2.1-2.647,5.101-2.647,9.004
				c0,3.829,0.798,6.745,2.396,8.752c1.598,2.009,3.898,3.012,6.904,3.012c1.644,0,3.156-0.157,4.537-0.477v-6.413h-7.31V24.684z"/>
			<path style="fill:#414243;" d="M103.214,7.711h14.283c5.565,0,9.695,0.826,12.396,2.479c2.698,1.652,4.046,4.225,4.046,7.716
				c0,2.298-0.589,4.258-1.766,5.883c-1.176,1.623-2.726,2.669-4.648,3.137v0.279c2.539,0.671,4.377,1.792,5.518,3.362
				c1.137,1.566,1.709,3.603,1.709,6.105c0,3.715-1.397,6.643-4.188,8.779c-2.792,2.139-6.597,3.207-11.415,3.207h-15.936V7.711z
				 M114.277,23.423h3.333c1.587,0,2.814-0.326,3.683-0.979c0.868-0.654,1.301-1.626,1.301-2.913c0-2.298-1.736-3.445-5.209-3.445
				h-3.108V23.423z M114.277,31.518v8.599h3.893c3.454,0,5.181-1.456,5.181-4.369c0-1.362-0.462-2.408-1.386-3.137
				c-0.925-0.729-2.265-1.093-4.018-1.093H114.277z"/>
			<path style="fill:#414243;" d="M158.307,24.684h17.672v22.071c-4.798,1.644-10.073,2.464-15.824,2.464
				c-6.311,0-11.19-1.83-14.635-5.489c-3.445-3.659-5.167-8.879-5.167-15.657c0-6.61,1.886-11.754,5.657-15.433
				c3.772-3.679,9.058-5.518,15.854-5.518c2.578,0,5.009,0.243,7.297,0.729c2.287,0.485,4.28,1.102,5.979,1.849l-3.502,8.684
				c-2.949-1.458-6.189-2.186-9.718-2.186c-3.231,0-5.728,1.051-7.492,3.151c-1.766,2.1-2.647,5.101-2.647,9.004
				c0,3.829,0.798,6.745,2.394,8.752c1.597,2.009,3.897,3.012,6.905,3.012c1.644,0,3.156-0.157,4.538-0.477v-6.413h-7.31V24.684z"/>
		</g>
	</g>
	<g>
		<path style="fill:#EA174F;" d="M19.552,42.403l0.002,0.007c1.694,0,3.392-0.634,4.684-1.931l5.958,5.94l0,0
			c5.869-5.875,5.869-15.393,0-21.263l-5.961,5.957l0,0c2.576,2.58,2.585,6.768,0,9.351C22.922,41.766,21.257,42.403,19.552,42.403z
			"/>
		<g>
			<defs>
				<path id="SVGID_1_" d="M19.554,50.83l-0.002-8.427c1.706,0,3.37-0.638,4.683-1.938l0,0c2.585-2.583,2.576-6.771,0-9.351l0,0l0,0
					l5.961-5.957c5.869,5.87,5.869,15.388,0,21.263l0,0C27.254,49.35,23.393,50.84,19.554,50.83L19.554,50.83z"/>
			</defs>
			<clipPath id="SVGID_2_">
				<use xlink:href="#SVGID_1_"  style="overflow:visible;"/>
			</clipPath>
			<path style="opacity:0.43;clip-path:url(#SVGID_2_);fill:#4AA648;" d="M50.679,26.917l-8.016-2.608
				c-0.527,1.611-1.658,3.009-3.296,3.848l0,0c-3.252,1.647-7.227,0.349-8.891-2.899l0,0H30.47l-7.506,3.815
				c4.431,8.701,12.056,10.74,20.229,6.589l0,0C46.885,33.778,49.488,30.566,50.679,26.917L50.679,26.917z"/>
		</g>
		<path style="fill:#FFC125;" d="M45.516,9.843c-5.878-5.866-15.4-5.866-21.277,0l0,0l5.958,5.967
			c2.587-2.582,6.771-2.582,9.358-0.002l0,0c1.304,1.295,1.941,2.971,1.941,4.681l0,0l0,0h8.426
			C49.922,16.645,48.442,12.769,45.516,9.843L45.516,9.843z"/>
		<path style="fill:#0079BE;" d="M8.931,46.433c5.869,5.875,15.391,5.882,21.269,0l0,0l-5.961-5.953
			c-2.588,2.584-6.771,2.57-9.361,0l0,0c-1.292-1.307-1.929-2.98-1.929-4.677l0,0l0,0H4.524C4.518,39.637,6.001,43.504,8.931,46.433
			L8.931,46.433z"/>
		<path style="fill:#48A642;" d="M41.522,20.542c-0.003,1.715-0.649,3.372-1.953,4.68c-2.602,2.564-6.786,2.544-9.358-0.047l0,0
			c-5.848-5.896-15.367-5.936-21.271-0.096c-2.939,2.922-4.443,6.778-4.452,10.622l8.432,0.043c0.003-1.704,0.646-3.382,1.953-4.676
			c2.603-2.574,6.777-2.555,9.356,0.046l0.005-0.013l-0.005,0.013c5.854,5.893,15.376,5.925,21.266,0.086
			c2.947-2.909,4.439-6.775,4.457-10.624L41.522,20.542z"/>
		<path style="fill:#EA174F;" d="M30.196,25.158h0.003c-2.576-2.584-2.576-6.771-0.003-9.349l-5.958-5.967
			c-3.007,3.019-4.46,6.984-4.38,10.932C23.61,20.847,27.334,22.293,30.196,25.158z"/>
	</g>
</g>
</svg>
