<?xml version="1.0" encoding="iso-8859-1"?>
<!-- Generator: Adobe Illustrator 16.0.0, SVG Export Plug-In . SVG Version: 6.00 Build 0)  -->
<!DOCTYPE svg PUBLIC "-//W3C//DTD SVG 1.1//EN" "http://www.w3.org/Graphics/SVG/1.1/DTD/svg11.dtd">
<svg version="1.1" id="infos" xmlns="http://www.w3.org/2000/svg" xmlns:xlink="http://www.w3.org/1999/xlink" x="0px" y="0px"
	 width="193px" height="193.833px" viewBox="0 0 193 193.833" style="enable-background:new 0 0 193 193.833;" xml:space="preserve"
	>
<g>
	<path style="fill:#FFFFFF;" d="M64.76,154.612l0.018,0.029c6.871,0,13.753-2.571,18.995-7.829l24.161,24.088l0,0
		c23.801-23.823,23.801-62.423,0-86.229l-24.175,24.157l0,0c10.445,10.463,10.481,27.447,0,37.923
		C78.434,152.027,71.685,154.612,64.76,154.612z"/>
	<g>
		<defs>
			<path id="SVGID_1_" d="M64.777,188.79l-0.018-34.178c6.925,0,13.674-2.585,18.999-7.861l0,0c10.481-10.476,10.445-27.46,0-37.923
				l0,0l0,0l24.175-24.157c23.801,23.807,23.801,62.406,0,86.229l0,0C95.997,182.783,80.336,188.827,64.777,188.79L64.777,188.79z"
				/>
		</defs>
		<clipPath id="SVGID_2_">
			<use xlink:href="#SVGID_1_"  style="overflow:visible;"/>
		</clipPath>
		<path style="opacity:0.43;clip-path:url(#SVGID_2_);fill:#BCBCBC;" d="M191,91.809L158.494,81.23
			c-2.139,6.532-6.726,12.202-13.374,15.602l0,0c-13.187,6.684-29.301,1.418-36.05-11.756l0,0h-0.025L78.597,100.55
			c17.975,35.286,48.894,43.557,82.047,26.718l0,0C175.616,119.637,186.163,106.607,191,91.809L191,91.809z"/>
	</g>
	<path style="fill:#FFFFFF;" d="M170.062,22.562c-23.844-23.788-62.454-23.788-86.29,0l0,0l24.161,24.198
		c10.493-10.469,27.46-10.469,37.952-0.006l0,0c5.289,5.247,7.873,13.046,7.873,19.983l0,0l0,0h34.174
		C187.933,51.147,181.931,34.427,170.062,22.562L170.062,22.562z"/>
	<path style="fill:#FFFFFF;" d="M21.692,170.956c23.801,23.824,62.411,23.848,86.247,0l0,0l-24.167-24.144
		c-10.5,10.479-27.466,10.42-37.966,0l0,0c-5.24-5.301-7.825-13.089-7.825-19.972l0,0l0,0H3.821
		C3.798,142.395,9.805,159.073,21.692,170.956L21.692,170.956z"/>
	<path style="fill:#FFFFFF;" d="M153.868,65.955c-0.012,6.956-2.631,13.676-7.922,18.977c-10.553,10.403-27.52,10.319-37.951-0.187
		l0,0c-23.723-23.916-62.32-24.073-86.271-0.388C9.805,96.204,3.711,111.847,3.67,127.431l34.204,0.176
		c0.011-6.908,2.613-13.712,7.914-18.96c10.562-10.444,27.484-10.365,37.946,0.182l0.024-0.048l-0.024,0.048
		c23.74,23.898,62.358,24.03,86.241,0.35c11.955-11.797,18.007-27.477,18.072-43.083L153.868,65.955z"/>
	<path style="fill:#FFFFFF;" d="M107.934,84.678h0.006c-10.444-10.481-10.438-27.465-0.006-37.917L83.772,22.562
		c-12.196,12.245-18.089,28.322-17.77,44.335C81.218,67.186,96.33,73.056,107.934,84.678z"/>
</g>
</svg>
