<?xml version="1.0" encoding="utf-8"?>
<!-- Generator: Adobe Illustrator 16.0.0, SVG Export Plug-In . SVG Version: 6.00 Build 0)  -->
<!DOCTYPE svg PUBLIC "-//W3C//DTD SVG 1.1//EN" "http://www.w3.org/Graphics/SVG/1.1/DTD/svg11.dtd">
<svg version="1.1" id="Capa" xmlns="http://www.w3.org/2000/svg" xmlns:xlink="http://www.w3.org/1999/xlink" x="0px" y="0px"
	 width="180px" height="55.167px" viewBox="0 0 180 55.167" enable-background="new 0 0 180 55.167" xml:space="preserve">
<g>
	<g>
		<path fill="#FEC422" d="M28.5,48.795c0,0.77,0.338,1.396-0.45,1.396L7.821,45.306c-0.788,0-1.321-0.625-1.321-1.396v-29.31
			c0-0.77,0.665-1.395,1.453-1.395l19.372,4.885c0.788,0,1.176,0.625,1.176,1.396V48.795z"/>
		<path fill="#44AA42" d="M28.5,48.676c0,0.771-0.033,1.515,0.383,1.515l20.971-5.004c0.788,0,1.646-0.625,1.646-1.396V14.483
			c0-0.771-0.815-1.396-1.604-1.396l-19.795,4.885c-0.789,0-1.602,0.625-1.602,1.395V48.676z"/>
		<linearGradient id="SVGID_1_" gradientUnits="userSpaceOnUse" x1="17.7437" y1="33.7407" x2="26.4245" y2="44.5621">
			<stop  offset="0" style="stop-color:#FFFFFF;stop-opacity:0"/>
			<stop  offset="1" style="stop-color:#E5B01E"/>
		</linearGradient>
		<path opacity="0.7" fill="url(#SVGID_1_)" d="M15.471,39.219c0,0,6.6,0.758,9.855,8.519c0,0,0.729,2.334,2.765,2.334V38.329
			l-5.53-4.325h-7.09V39.219z"/>
		<linearGradient id="SVGID_2_" gradientUnits="userSpaceOnUse" x1="40.8472" y1="33.7446" x2="32.3447" y2="41.9499">
			<stop  offset="0" style="stop-color:#FFFFFF;stop-opacity:0"/>
			<stop  offset="1" style="stop-color:#97D384"/>
		</linearGradient>
		<path opacity="0.7" fill="url(#SVGID_2_)" d="M41.945,39.219c0,0-6.6,0.758-9.855,8.519c0,0-0.729,2.334-2.765,2.334V38.329
			l5.53-4.325h7.09V39.219z"/>
		<path fill="#0079C2" d="M13.5,3.692v32.109c0,0,11.484-0.476,13.208,12.844c0.138,1.062,0.792,1.546,1.792,1.546V18.32
			C28.5,18.32,27.5,5.001,13.5,3.692z"/>
		<path fill="#ED154E" d="M43.5,3.692v32.109c0,0-11.484-0.476-13.208,12.844c-0.138,1.062,0.208,1.546-1.792,1.546V18.32
			C28.5,18.32,30.5,5.001,43.5,3.692z"/>
	</g>
	<g>
		<path fill="#4B4C4D" d="M84.046,23.643h16.947v21.162c-4.601,1.577-9.659,2.364-15.174,2.364c-6.052,0-10.729-1.754-14.033-5.264
			c-3.303-3.509-4.955-8.514-4.955-15.014c0-6.338,1.808-11.271,5.425-14.798c3.617-3.526,8.684-5.291,15.201-5.291
			c2.471,0,4.802,0.233,6.996,0.698s4.105,1.057,5.734,1.772L96.83,17.6c-2.828-1.397-5.936-2.095-9.319-2.095
			c-3.097,0-5.492,1.007-7.184,3.021c-1.692,2.015-2.538,4.893-2.538,8.635c0,3.67,0.766,6.467,2.296,8.393
			c1.531,1.924,3.738,2.887,6.621,2.887c1.575,0,3.025-0.152,4.351-0.457v-6.15h-7.01V23.643z"/>
		<path fill="#4B4C4D" d="M130.714,46.633h-23.312V7.367h23.312v8.514h-12.703v6.177h11.764v8.515h-11.764v7.411h12.703V46.633z"/>
		<path fill="#4B4C4D" d="M151.759,23.643h16.948v21.162c-4.602,1.577-9.66,2.364-15.174,2.364c-6.054,0-10.73-1.754-14.034-5.264
			c-3.303-3.509-4.955-8.514-4.955-15.014c0-6.338,1.809-11.271,5.426-14.798c3.616-3.526,8.684-5.291,15.201-5.291
			c2.471,0,4.802,0.233,6.997,0.698c2.192,0.465,4.104,1.057,5.733,1.772l-3.357,8.326c-2.829-1.397-5.937-2.095-9.319-2.095
			c-3.098,0-5.493,1.007-7.184,3.021c-1.693,2.015-2.539,4.893-2.539,8.635c0,3.67,0.766,6.467,2.296,8.393
			c1.531,1.924,3.737,2.887,6.622,2.887c1.574,0,3.023-0.152,4.35-0.457v-6.15h-7.011V23.643z"/>
	</g>
</g>
</svg>
