<?xml version="1.0" encoding="iso-8859-1"?>
<!-- Generator: Adobe Illustrator 16.0.0, SVG Export Plug-In . SVG Version: 6.00 Build 0)  -->
<!DOCTYPE svg PUBLIC "-//W3C//DTD SVG 1.1//EN" "http://www.w3.org/Graphics/SVG/1.1/DTD/svg11.dtd">
<svg version="1.1" id="Capa" xmlns="http://www.w3.org/2000/svg" xmlns:xlink="http://www.w3.org/1999/xlink" x="0px" y="0px"
	 width="179px" height="87px" viewBox="0 0 179 87" style="enable-background:new 0 0 179 87;" xml:space="preserve">
<path style="fill-rule:evenodd;clip-rule:evenodd;fill:#FFFFFF;" d="M172.58,33.301h1.084c0.008,0.014,0.012,0.027,0.016,0.04
	c0.178,0.386,0.354,0.771,0.518,1.159c0.176,0.436,0.334,0.877,0.525,1.309c0.008,0.013,0.014,0.026,0.018,0.041
	c0.139-0.318,0.357-0.829,0.498-1.146c0.131-0.293,0.262-0.592,0.393-0.887c0.051-0.113,0.061-0.137,0.061-0.177
	c0-0.099-0.102-0.099-0.191-0.099l-0.398,0.018l0.398-0.258h1.453l-0.104,0.1c-0.105,0.095-0.16,0.162-0.16,0.348
	c0,0.064,0.006,0.127,0.014,0.195c0.027,0.285,0.051,0.57,0.072,0.855c0.033,0.376,0.068,0.752,0.137,1.123
	c0.059,0.303,0.123,0.412,0.34,0.574c-0.24,0.045-0.402,0.068-0.645,0.068c-0.098,0-0.27,0-0.428-0.117
	c-0.188-0.146-0.213-0.377-0.244-0.788c-0.027-0.282-0.055-0.562-0.078-0.843c-0.018-0.267-0.027-0.534-0.053-0.801l-0.006-0.055
	l-0.027,0.059c-0.158,0.344-0.303,0.697-0.457,1.041c-0.357,0.824-0.383,0.879-0.455,1.101l0.049,0.136
	c-0.131,0.032-0.648,0.203-0.838,0.275c-0.146-0.402-0.656-1.715-1.062-2.611c-0.041,0.381-0.078,0.761-0.113,1.141
	c-0.012,0.127-0.088,0.974-0.088,1.051c0,0.099,0.023,0.126,0.201,0.145l0.396,0.059l-0.23,0.141h-0.842l0.117-0.141
	c0.023-0.031,0.045-0.059,0.059-0.1c0.027-0.072,0.041-0.199,0.059-0.38c0.033-0.276,0.07-0.548,0.102-0.823
	c0.018-0.173,0.102-1.014,0.125-1.209c0.006-0.046,0.01-0.096,0.01-0.141c0-0.117-0.045-0.176-0.182-0.176
	c-0.064,0-0.354,0.008-0.42,0.008L172.58,33.301L172.58,33.301z"/>
<path style="fill-rule:evenodd;clip-rule:evenodd;fill:#FFFFFF;" d="M172.381,33.301l-0.197,0.461l-0.203,0.091
	c0.012-0.045,0.049-0.213,0.049-0.229c0-0.105-0.121-0.109-0.248-0.109l-0.631,0.004c-0.055,1.766-0.055,1.919-0.055,2.158
	c0,0.128,0,0.231,0.01,0.385c0.014,0.195,0.076,0.236,0.285,0.25l0.385,0.041l-0.295,0.145h-1.508l0.102-0.145
	c0.098-0.15,0.113-0.172,0.113-0.271c0.002-0.101,0-0.566,0-0.67c0-0.191,0-0.385,0.002-0.575c0.016-0.39,0.039-0.778,0.039-1.163
	c0-0.064-0.006-0.137-0.006-0.154h-0.551c-0.277,0.01-0.283,0.018-0.432,0.244L169,33.853l0.24-0.552H172.381L172.381,33.301z"/>
<path style="fill-rule:evenodd;clip-rule:evenodd;fill:#FFFFFF;" d="M166.521,59.136c-0.637,0.348-1.275,0.753-1.91,1.043
	c-1.914,0.869-3.883,1.101-5.621,1.101c-1.854,0-4.752-0.116-7.705-2.259c-4.113-2.897-5.908-7.88-5.908-12.225
	c0-8.979,7.299-13.383,13.268-13.383c2.084,0,4.229,0.521,5.967,1.622c2.895,1.912,3.648,4.402,4.053,5.736l-13.613,5.503
	l-4.461,0.349c1.449,7.357,6.43,11.644,11.934,11.644c2.955,0,5.1-1.042,7.07-2.027L166.521,59.136L166.521,59.136z M161.076,41.872
	c1.1-0.406,1.68-0.753,1.68-1.565c0-2.316-2.605-4.982-5.736-4.982c-2.318,0-6.662,1.797-6.662,8.054
	c0,0.985,0.115,2.027,0.174,3.07L161.076,41.872L161.076,41.872z"/>
<path style="fill-rule:evenodd;clip-rule:evenodd;fill:#FFFFFF;" d="M143.984,60.41H133.73c1.332-1.737,1.564-1.912,1.564-3.069
	v-9.444c0-4.519,0.059-10.949,0.23-16.975c0.059-2.955,0.291-6.662,0.348-9.328h-4.518l4.346-2.086h8.283
	c-1.795,1.044-2.375,1.392-2.605,3.42c-0.463,4.46-0.521,11.527-0.521,19.754v13.384c0,2.26,0.404,2.607,2.316,2.781
	c0.986,0.116,1.971,0.174,2.955,0.289L143.984,60.41L143.984,60.41z"/>
<path style="fill-rule:evenodd;clip-rule:evenodd;fill:#FFFFFF;" d="M124.982,36.252c1.332,1.101,4.113,3.418,4.113,7.821
	c0,4.287-2.434,6.314-4.865,8.227c-0.754,0.753-1.623,1.565-1.623,2.839c0,1.274,0.869,1.97,1.506,2.49l2.086,1.623
	c2.551,2.143,4.865,4.113,4.865,8.111c0,5.445-5.271,10.949-15.236,10.949c-8.4,0-12.455-3.998-12.455-8.285
	c0-2.086,1.043-5.04,4.461-7.068c3.592-2.201,8.459-2.49,11.064-2.664c-0.811-1.043-1.736-2.144-1.736-3.939
	c0-0.985,0.289-1.564,0.58-2.26c-0.639,0.058-1.275,0.116-1.855,0.116c-6.141,0-9.617-4.577-9.617-9.097
	c0-2.664,1.217-5.619,3.709-7.763c3.303-2.724,7.24-3.187,10.369-3.187h11.934l-3.707,2.086H124.982L124.982,36.252z
	 M120.869,61.975c-0.463-0.059-0.754-0.059-1.332-0.059c-0.521,0-3.65,0.116-6.084,0.928c-1.273,0.464-4.982,1.854-4.982,5.968
	c0,4.112,3.998,7.066,10.197,7.066c5.562,0,8.516-2.664,8.516-6.255C127.184,66.667,125.273,65.104,120.869,61.975L120.869,61.975z
	 M122.551,50.968c1.33-1.333,1.447-3.188,1.447-4.229c0-4.172-2.49-10.66-7.301-10.66c-1.506,0-3.127,0.753-4.055,1.912
	c-0.986,1.217-1.275,2.781-1.275,4.287c0,3.881,2.26,10.312,7.242,10.312C120.057,52.59,121.623,51.894,122.551,50.968
	L122.551,50.968z"/>
<path style="fill-rule:evenodd;clip-rule:evenodd;fill:#FFFFFF;" d="M89.063,61.163c-9.211,0-14.136-7.183-14.136-13.671
	c0-7.59,6.199-14.079,15.004-14.079c8.518,0,13.848,6.663,13.848,13.673C103.779,53.922,98.506,61.163,89.063,61.163L89.063,61.163z
	 M96.305,56.472c1.391-1.854,1.738-4.172,1.738-6.432c0-5.099-2.434-14.831-9.618-14.831c-1.911,0-3.823,0.754-5.213,1.97
	c-2.258,2.028-2.665,4.577-2.665,7.068c0,5.735,2.839,15.179,9.848,15.179C92.654,59.426,94.973,58.325,96.305,56.472L96.305,56.472
	z"/>
<path style="fill-rule:evenodd;clip-rule:evenodd;fill:#FFFFFF;" d="M58.242,61.163c-9.212,0-14.137-7.183-14.137-13.671
	c0-7.59,6.199-14.079,15.006-14.079c8.516,0,13.845,6.663,13.845,13.673C72.957,53.922,67.686,61.163,58.242,61.163L58.242,61.163z
	 M65.483,56.472c1.391-1.854,1.738-4.172,1.738-6.432c0-5.099-2.433-14.831-9.616-14.831c-1.912,0-3.824,0.754-5.215,1.97
	c-2.259,2.028-2.665,4.577-2.665,7.068c0,5.735,2.839,15.179,9.85,15.179C61.834,59.426,64.151,58.325,65.483,56.472L65.483,56.472z
	"/>
<path style="fill-rule:evenodd;clip-rule:evenodd;fill:#FFFFFF;" d="M40.422,59.142l-7.767,1.792
	c-3.15,0.489-5.975,0.924-8.962,0.924C8.703,61.857,3,50.831,3,42.195c0-10.537,8.093-20.313,21.943-20.313
	c2.933,0,5.758,0.436,8.31,1.141c4.073,1.142,5.975,2.553,7.169,3.368l-4.508,4.291l-1.9,0.434l1.357-2.173
	c-1.847-1.792-5.215-5.104-11.623-5.104c-8.583,0-15.046,6.518-15.046,16.023c0,10.21,7.388,19.823,19.227,19.823
	c3.477,0,5.269-0.706,6.898-1.357v-8.745l-8.201,0.435l4.345-2.335h11.515l-1.412,1.358c-0.38,0.325-0.436,0.434-0.544,0.868
	c-0.054,0.489-0.108,2.064-0.108,2.607V59.142L40.422,59.142z"/>
</svg>
